<?xml version="1.0" encoding="UTF-8" standalone="no"?>
<!-- Created with Inkscape (http://www.inkscape.org/) -->

<svg
   xmlns:dc="http://purl.org/dc/elements/1.1/"
   xmlns:cc="http://creativecommons.org/ns#"
   xmlns:rdf="http://www.w3.org/1999/02/22-rdf-syntax-ns#"
   xmlns:svg="http://www.w3.org/2000/svg"
   xmlns="http://www.w3.org/2000/svg"
   xmlns:sodipodi="http://sodipodi.sourceforge.net/DTD/sodipodi-0.dtd"
   xmlns:inkscape="http://www.inkscape.org/namespaces/inkscape"
   width="64"
   height="64"
   id="svg3392"
   version="1.1"
   inkscape:version="0.91 r13725"
   viewBox="0 0 64 64"
   sodipodi:docname="ubuntugnome2.svg">
  <defs
     id="defs3394" />
  <sodipodi:namedview
     id="base"
     pagecolor="#ffffff"
     bordercolor="#666666"
     borderopacity="1.0"
     inkscape:pageopacity="0.0"
     inkscape:pageshadow="2"
     inkscape:zoom="11"
     inkscape:cx="51.147792"
     inkscape:cy="35.061114"
     inkscape:current-layer="layer1"
     showgrid="true"
     inkscape:document-units="px"
     inkscape:grid-bbox="true"
     inkscape:window-width="1854"
     inkscape:window-height="1017"
     inkscape:window-x="66"
     inkscape:window-y="30"
     inkscape:window-maximized="1" />
  <metadata
     id="metadata3397">
    <rdf:RDF>
      <cc:Work
         rdf:about="">
        <dc:format>image/svg+xml</dc:format>
        <dc:type
           rdf:resource="http://purl.org/dc/dcmitype/StillImage" />
        <dc:title></dc:title>
      </cc:Work>
    </rdf:RDF>
  </metadata>
  <g
     id="layer1"
     inkscape:label="Layer 1"
     inkscape:groupmode="layer">
    <g
       transform="matrix(0.3125,0,0,-0.3125,-1.0490417e-4,64.312531)"
       inkscape:label="ink_ext_XXXXXX"
       id="g10">
      <circle
         transform="scale(1,-1)"
         r="102.4"
         cy="-103.4001"
         cx="102.40034"
         id="path4807"
         style="color:#000000;display:inline;overflow:visible;visibility:visible;opacity:1;fill:#0087ed;fill-opacity:1;fill-rule:nonzero;stroke:none;stroke-width:0.80000001;stroke-linecap:round;stroke-linejoin:round;stroke-miterlimit:4;stroke-dasharray:none;stroke-dashoffset:0;stroke-opacity:1;marker:none;enable-background:accumulate" />
      <g
         style="fill:#ffffff"
         transform="matrix(0.62574557,0,0,-0.62574557,-309.47688,427.32645)"
         inkscape:label="Roundel"
         id="g4798">
        <g
           style="fill:#ffffff"
           inkscape:export-ydpi="300"
           inkscape:export-xdpi="300"
           inkscape:export-filename="/home/patrik/Documents/UCN/Projects/2nd year/Final exam/Final product/Roundel.png"
           transform="matrix(3.5217342,0,0,3.5217342,-7997.2999,-3141.3471)"
           id="g4800">
          <path
             id="circle4802"
             transform="matrix(0.72604847,0,0,0.72604847,2038.0872,672.87015)"
             d="m 574.38281,462.98828 c -1.87508,1.125 -4.26573,2.71872 -7.17187,4.78125 -2.85959,2.01571 -5.90627,4.64064 -9.14063,7.875 -2.81248,2.81249 -4.78139,5.57819 -5.90625,8.29688 -1.07858,2.76579 -1.45307,5.48439 -1.125,8.15625 0.32822,2.67186 1.24215,5.27345 2.74219,7.80468 1.54687,2.57821 3.56261,5.10948 6.04687,7.59375 l 20.53126,20.53125 6.53906,-6.53906 -19.125,-19.125 c -4.45329,-4.45328 -6.93746,-8.34372 -7.45313,-11.67187 -0.51553,-3.32829 0.8906,-6.65623 4.21875,-9.98438 0.70312,-0.70326 1.45322,-1.40611 2.25,-2.10937 0.79678,-0.70326 1.54702,-1.35929 2.25,-1.96875 0.74995,-0.5625 1.40626,-1.07804 1.96875,-1.54688 0.65616,-0.46884 1.14863,-0.77316 1.47657,-0.91406 l 42.0664,42.06641 6.53906,-6.53907 -46.70703,-46.70703 z m -2.03515,20.77734 -6.54102,6.53907 30.86914,30.86719 c -0.14076,0.32807 -0.44508,0.82054 -0.91406,1.47656 -0.46884,0.56249 -0.9841,1.21894 -1.54688,1.96875 -0.6096,0.70298 -1.26549,1.45322 -1.96875,2.25 -0.70326,0.79678 -1.40625,1.54688 -2.10937,2.25 -3.32815,3.32815 -6.65622,4.73442 -9.98438,4.21875 -3.32815,-0.51553 -7.21873,-2.99998 -11.67187,-7.45313 l -19.125,-19.125 -6.53906,6.53907 20.53125,20.53124 c 2.4844,2.48441 5.01568,4.50001 7.59375,6.04688 2.53137,1.50004 5.13282,2.41411 7.80468,2.74219 2.67186,0.32807 5.3906,-0.0468 8.15625,-1.125 2.71883,-1.125 5.48426,-3.09377 8.29688,-5.90625 3.23436,-3.23436 5.85943,-6.28131 7.875,-9.14063 2.0624,-2.90628 3.65625,-5.29693 4.78125,-7.17187 l -35.50781,-35.50782 z"
             style="fill:#ffffff;fill-opacity:1"
             inkscape:connector-curvature="0" />
        </g>
      </g>
    </g>
  </g>
</svg>
